<?xml version="1.0" encoding="UTF-8" standalone="no"?>
<!-- Generator: Adobe Illustrator 23.0.1, SVG Export Plug-In . SVG Version: 6.00 Build 0)  -->

<svg
   xmlns:dc="http://purl.org/dc/elements/1.1/"
   xmlns:cc="http://creativecommons.org/ns#"
   xmlns:rdf="http://www.w3.org/1999/02/22-rdf-syntax-ns#"
   xmlns:svg="http://www.w3.org/2000/svg"
   xmlns="http://www.w3.org/2000/svg"
   xmlns:sodipodi="http://sodipodi.sourceforge.net/DTD/sodipodi-0.dtd"
   xmlns:inkscape="http://www.inkscape.org/namespaces/inkscape"
   version="1.1"
   x="0px"
   y="0px"
   viewBox="0 0 81.122331 180"
   xml:space="preserve"
   id="svg3921"
   sodipodi:docname="magma-logo2.svg"
   width="81.12233"
   height="180"
   inkscape:version="0.92.4 (5da689c313, 2019-01-14)"><metadata
   id="metadata3927"><rdf:RDF><cc:Work
       rdf:about=""><dc:format>image/svg+xml</dc:format><dc:type
         rdf:resource="http://purl.org/dc/dcmitype/StillImage" /><dc:title></dc:title></cc:Work></rdf:RDF></metadata><defs
   id="defs3925" /><sodipodi:namedview
   pagecolor="#ffffff"
   bordercolor="#666666"
   borderopacity="1"
   objecttolerance="10"
   gridtolerance="10"
   guidetolerance="10"
   inkscape:pageopacity="0"
   inkscape:pageshadow="2"
   inkscape:window-width="636"
   inkscape:window-height="1023"
   id="namedview3923"
   showgrid="false"
   inkscape:zoom="1.665138"
   inkscape:cx="207.61441"
   inkscape:cy="62.910009"
   inkscape:window-x="1282"
   inkscape:window-y="36"
   inkscape:window-maximized="0"
   inkscape:current-layer="svg3921" />
<style
   type="text/css"
   id="style3840">
	.st0{fill:url(#SVGID_1_);}
	.st1{fill:url(#SVGID_2_);}
	.st2{fill:url(#SVGID_3_);}
	.st3{fill:url(#SVGID_4_);}
	.st4{fill:url(#SVGID_5_);}
</style>
<g
   id="color"
   transform="matrix(1.4307289,0,0,1.4307289,-162.21604,-112.78436)">
	<g
   id="g3917">
		<linearGradient
   id="SVGID_1_"
   gradientUnits="userSpaceOnUse"
   x1="125.8989"
   y1="124.9851"
   x2="201.772"
   y2="195.3559">
			<stop
   offset="0"
   style="stop-color:#C81E88"
   id="stop3842" />
			<stop
   offset="0.5139"
   style="stop-color:#6C297C"
   id="stop3844" />
			<stop
   offset="0.6367"
   style="stop-color:#69498C"
   id="stop3846" />
			<stop
   offset="0.7329"
   style="stop-color:#7A578F"
   id="stop3848" />
			<stop
   offset="0.8914"
   style="stop-color:#6989B1"
   id="stop3850" />
			<stop
   offset="1"
   style="stop-color:#7988A9"
   id="stop3852" />
		</linearGradient>
		<path
   class="st0"
   d="m 123.92,136.03 c -1.98,0 -3.48,1.58 -3.48,3.66 0,1.99 1.5,3.66 3.48,3.66 h 4.59 c 6.81,0 6.81,3.91 13.78,3.91 6.89,0 6.89,-3.91 13.78,-3.91 h 3.48 c 1.98,0 3.48,-1.66 3.48,-3.66 0,-2.08 -1.5,-3.66 -3.48,-3.66 h -3.48 c -6.89,0 -6.89,3.91 -13.78,3.91 h -0.55 v 2.41 c -3.48,-0.08 -5.15,-1.25 -6.97,-2.24 v -9.81 c 1.98,1.08 3.64,2.33 7.52,2.33 6.89,0 6.89,-3.91 13.78,-3.91 h 0.71 2.77 c 4.59,0 8.47,2.99 9.9,7.31 0.4,1.08 0.63,2.33 0.63,3.66 0,1.25 -0.24,2.49 -0.63,3.66 -1.43,4.24 -5.31,7.31 -9.9,7.31 h -1.35 -2.14 c -6.89,0 -6.89,3.91 -13.78,3.91 -6.97,0 -6.97,-3.91 -13.78,-3.91 h -4.59 c -4.59,0 -8.47,-3.08 -9.9,-7.31 -0.4,-1.16 -0.63,-2.41 -0.63,-3.66 0,-1.33 0.24,-2.58 0.63,-3.66 1.43,-4.32 5.31,-7.31 9.9,-7.31 h 3.33 v 7.31 z"
   id="path3855"
   inkscape:connector-curvature="0"
   style="fill:url(#SVGID_1_)" />
		<linearGradient
   id="SVGID_2_"
   gradientUnits="userSpaceOnUse"
   x1="138.2674"
   y1="111.6495"
   x2="214.1405"
   y2="182.02029">
			<stop
   offset="0"
   style="stop-color:#C81E88"
   id="stop3857" />
			<stop
   offset="0.5139"
   style="stop-color:#6C297C"
   id="stop3859" />
			<stop
   offset="0.6367"
   style="stop-color:#69498C"
   id="stop3861" />
			<stop
   offset="0.7329"
   style="stop-color:#7A578F"
   id="stop3863" />
			<stop
   offset="0.8914"
   style="stop-color:#6989B1"
   id="stop3865" />
			<stop
   offset="1"
   style="stop-color:#7988A9"
   id="stop3867" />
		</linearGradient>
		<path
   class="st1"
   d="m 129.26,118.69 c 5.43,0.59 5.99,3.91 12.47,3.91 6.97,0 6.97,-4 14.09,-4 h 14.25 v 7.48 h -14.25 c -7.13,0 -7.13,4 -14.09,4 -7.13,0 -7.13,-4 -14.09,-4 h -1.78 c -2.59,0 -5.18,0 -7.37,0 h -5.1 v -7.31 l 7.37,-3.91 -7.37,-4 v -7.23 h 4.21 9.15 c 0.32,0 0.57,0 0.89,0 6.97,0 6.97,4 14.09,4 6.97,0 6.97,-4 14.09,-4 h 14.25 v 7.48 h -14.25 c -7.13,0 -7.13,4 -14.09,4 -6.56,0 -7.05,-3.4 -12.63,-3.91 1.24,0.65 2.42,1.46 3.42,2.43 0.76,0.74 1.41,1.59 1.99,2.47 0.32,0.49 0.63,0.98 0.92,1.49 0.06,0.11 0.62,1.26 0.69,1.25 -0.15,0.01 -0.33,-0.04 -0.48,-0.07 -1.88,-0.32 -3.75,-0.58 -5.66,-0.22 -0.21,0.04 -0.52,0.16 -0.72,0.14 z"
   id="path3870"
   inkscape:connector-curvature="0"
   style="fill:url(#SVGID_2_)" />
		<linearGradient
   id="SVGID_3_"
   gradientUnits="userSpaceOnUse"
   x1="101.0947"
   y1="151.72881"
   x2="176.9677"
   y2="222.09959">
			<stop
   offset="0"
   style="stop-color:#C81E88"
   id="stop3872" />
			<stop
   offset="0.5139"
   style="stop-color:#6C297C"
   id="stop3874" />
			<stop
   offset="0.6367"
   style="stop-color:#69498C"
   id="stop3876" />
			<stop
   offset="0.7329"
   style="stop-color:#7A578F"
   id="stop3878" />
			<stop
   offset="0.8914"
   style="stop-color:#6989B1"
   id="stop3880" />
			<stop
   offset="1"
   style="stop-color:#7988A9"
   id="stop3882" />
		</linearGradient>
		<path
   class="st2"
   d="m 129.26,193.25 c 5.43,0.59 5.99,3.91 12.47,3.91 6.97,0 6.97,-4 14.09,-4 h 14.25 v 7.48 h -14.25 c -7.13,0 -7.13,4 -14.09,4 -7.13,0 -7.13,-4 -14.09,-4 h -1.78 c -2.59,0 -5.18,0 -7.37,0 h -5.1 v -7.31 l 7.37,-3.91 -7.37,-4 v -7.23 h 4.21 9.15 c 0.32,0 0.57,0 0.89,0 6.97,0 6.97,4 14.09,4 6.97,0 6.97,-4 14.09,-4 h 14.25 v 7.48 h -14.25 c -7.13,0 -7.13,4 -14.09,4 -6.56,0 -7.05,-3.4 -12.63,-3.91 1.24,0.65 2.42,1.46 3.42,2.43 0.76,0.74 1.41,1.59 1.99,2.47 0.32,0.49 0.63,0.98 0.92,1.49 0.06,0.11 0.62,1.26 0.69,1.25 -0.15,0.01 -0.33,-0.04 -0.48,-0.07 -1.88,-0.32 -3.75,-0.58 -5.66,-0.22 -0.21,0.04 -0.52,0.16 -0.72,0.14 z"
   id="path3885"
   inkscape:connector-curvature="0"
   style="fill:url(#SVGID_3_)" />
		<linearGradient
   id="SVGID_4_"
   gradientUnits="userSpaceOnUse"
   x1="152.21021"
   y1="96.6166"
   x2="228.08321"
   y2="166.9874">
			<stop
   offset="0"
   style="stop-color:#C81E88"
   id="stop3887" />
			<stop
   offset="0.5139"
   style="stop-color:#6C297C"
   id="stop3889" />
			<stop
   offset="0.6367"
   style="stop-color:#69498C"
   id="stop3891" />
			<stop
   offset="0.7329"
   style="stop-color:#7A578F"
   id="stop3893" />
			<stop
   offset="0.8914"
   style="stop-color:#6989B1"
   id="stop3895" />
			<stop
   offset="1"
   style="stop-color:#7988A9"
   id="stop3897" />
		</linearGradient>
		<path
   class="st3"
   d="m 128.04,78.83 c 6.89,0 6.89,4.04 13.93,4.04 6.97,0 6.97,-4.04 14.01,-4.04 h 14.09 v 7.4 h -14.01 v 7.48 h 14.01 v 7.4 h -2.48 -11.61 c -7.05,0 -7.05,3.95 -14.01,3.95 -7.05,0 -7.05,-3.95 -13.93,-3.95 h -4.08 c -4.56,0 -8.49,-3.11 -9.93,-7.4 -0.4,-1.18 -0.64,-2.44 -0.64,-3.7 0,-1.34 0.24,-2.61 0.64,-3.78 1.44,-4.29 5.36,-7.4 9.93,-7.4 z m -3.52,7.39 c -1.92,0 -3.52,1.68 -3.52,3.78 0,2.02 1.6,3.7 3.52,3.7 h 3.52 c 6.89,0 6.89,3.95 13.93,3.95 3.6,0 5.28,-1.09 7.13,-2.1 v -7.4 c -1.84,1.01 -3.52,2.1 -7.13,2.1 -7.05,0 -7.05,-4.03 -13.93,-4.03 z"
   id="path3900"
   inkscape:connector-curvature="0"
   style="fill:url(#SVGID_4_)" />
		<linearGradient
   id="SVGID_5_"
   gradientUnits="userSpaceOnUse"
   x1="115.0853"
   y1="136.6442"
   x2="190.9584"
   y2="207.015">
			<stop
   offset="0"
   style="stop-color:#C81E88"
   id="stop3902" />
			<stop
   offset="0.5139"
   style="stop-color:#6C297C"
   id="stop3904" />
			<stop
   offset="0.6367"
   style="stop-color:#69498C"
   id="stop3906" />
			<stop
   offset="0.7329"
   style="stop-color:#7A578F"
   id="stop3908" />
			<stop
   offset="0.8914"
   style="stop-color:#6989B1"
   id="stop3910" />
			<stop
   offset="1"
   style="stop-color:#7988A9"
   id="stop3912" />
		</linearGradient>
		<path
   class="st4"
   d="m 128.04,153.29 c 6.89,0 6.89,4.04 13.93,4.04 6.97,0 6.97,-4.04 14.01,-4.04 h 14.09 v 7.4 h -14.01 v 7.48 h 14.01 v 7.4 h -2.48 -11.61 c -7.05,0 -7.05,3.95 -14.01,3.95 -7.05,0 -7.05,-3.95 -13.93,-3.95 h -4.08 c -4.56,0 -8.49,-3.11 -9.93,-7.4 -0.4,-1.18 -0.64,-2.44 -0.64,-3.7 0,-1.34 0.24,-2.61 0.64,-3.78 1.44,-4.29 5.36,-7.4 9.93,-7.4 z m -3.52,7.39 c -1.92,0 -3.52,1.68 -3.52,3.78 0,2.02 1.6,3.7 3.52,3.7 h 3.52 c 6.89,0 6.89,3.95 13.93,3.95 3.6,0 5.28,-1.09 7.13,-2.1 v -7.4 c -1.84,1.01 -3.52,2.1 -7.13,2.1 -7.05,0 -7.05,-4.03 -13.93,-4.03 z"
   id="path3915"
   inkscape:connector-curvature="0"
   style="fill:url(#SVGID_5_)" />
	</g>
</g>
<g
   id="bw_1_"
   transform="translate(-113.38,-24.639999)">
</g>
</svg>