<?xml version="1.0" standalone="no"?>
<!DOCTYPE svg PUBLIC "-//W3C//DTD SVG 20010904//EN"
 "http://www.w3.org/TR/2001/REC-SVG-20010904/DTD/svg10.dtd">
<svg version="1.0" xmlns="http://www.w3.org/2000/svg"
 width="2016.000000pt" height="2016.000000pt" viewBox="0 0 2016.000000 2016.000000"
 preserveAspectRatio="xMidYMid meet">
<metadata>
Created by potrace 1.11, written by Peter Selinger 2001-2013
</metadata>
<g transform="translate(0.000000,2016.000000) scale(0.100000,-0.100000)"
fill="#000000" stroke="none">
<path d="M7089 20156 c-2 -3 -27 -7 -54 -10 -46 -5 -66 -8 -127 -20 -42 -9
-63 -14 -108 -27 -56 -16 -52 -15 -70 -22 -21 -9 -103 -37 -115 -40 -5 -1 -12
-4 -15 -7 -3 -3 -25 -14 -50 -25 -49 -21 -242 -132 -250 -144 -3 -4 -12 -12
-21 -17 -81 -45 -302 -267 -395 -397 -81 -113 -234 -414 -234 -460 0 -7 -5
-18 -12 -25 -7 -7 -9 -12 -5 -12 3 0 2 -12 -4 -27 -14 -33 -26 -79 -44 -163
-2 -8 -4 -15 -5 -15 -1 0 -3 -18 -6 -40 -2 -22 -7 -47 -10 -55 -11 -29 -19
-156 -18 -285 1 -120 4 -170 18 -265 13 -82 16 -100 41 -190 28 -103 29 -106
38 -132 7 -19 15 -44 18 -56 2 -7 43 -99 76 -171 9 -20 34 -65 55 -100 21 -34
38 -65 38 -67 0 -5 108 -152 134 -183 48 -55 195 -200 246 -242 30 -25 91 -69
135 -97 44 -29 85 -57 92 -62 7 -6 19 -10 27 -10 8 0 16 -4 18 -8 3 -9 165
-80 238 -105 85 -29 182 -54 290 -73 35 -6 246 -10 805 -18 160 -2 310 -6 335
-9 109 -13 143 -19 221 -37 26 -6 53 -13 60 -14 8 -2 21 -6 29 -9 8 -3 38 -12
66 -20 28 -8 70 -24 95 -34 51 -23 82 -36 89 -37 14 -3 363 -191 420 -227 16
-9 144 -72 195 -94 68 -30 184 -70 225 -79 14 -3 56 -12 93 -21 117 -26 168
-33 282 -41 44 -3 97 -6 118 -8 21 -1 40 1 43 6 3 5 11 5 17 1 17 -10 79 -11
100 -1 11 6 17 5 17 -2 0 -6 4 -9 8 -6 4 2 44 7 87 11 110 8 159 14 235 31 36
7 76 16 90 18 14 3 50 12 80 22 30 9 60 17 65 18 6 1 20 7 32 14 12 7 30 13
40 15 10 2 41 14 68 27 28 13 52 24 55 25 11 3 105 50 110 55 5 5 20 13 135
74 33 17 66 37 73 43 7 7 24 16 38 19 13 3 24 10 24 16 0 5 4 7 9 4 5 -3 14 1
21 9 7 8 16 12 21 9 5 -3 9 -1 9 3 0 7 72 45 90 47 3 1 22 9 43 19 40 20 162
66 187 72 8 1 40 10 70 19 30 9 67 17 83 18 15 1 27 5 27 8 0 3 8 6 18 6 9 0
40 4 67 8 168 25 175 25 1453 25 l1172 1 -2 593 -3 592 -1120 0 -1120 0 0 600
0 600 1110 1 c611 1 1115 2 1122 3 10 1 12 135 13 591 l0 591 -1252 -4 c-689
-2 -1266 -6 -1283 -9 -77 -13 -112 -19 -140 -22 -79 -10 -275 -69 -370 -112
-22 -10 -42 -18 -45 -19 -9 -1 -165 -80 -170 -86 -3 -3 -18 -12 -35 -21 -46
-23 -109 -59 -124 -71 -7 -6 -20 -12 -29 -13 -8 -2 -18 -7 -21 -12 -3 -4 -26
-18 -51 -31 -25 -12 -64 -33 -87 -46 -23 -12 -44 -20 -47 -17 -4 3 -6 1 -6 -4
0 -9 -62 -37 -76 -34 -4 1 -10 -2 -13 -7 -6 -9 -215 -80 -256 -88 -11 -2 -22
-4 -25 -5 -3 -1 -8 -2 -12 -1 -4 0 -38 -6 -75 -13 -104 -22 -211 -30 -398 -29
-152 0 -262 6 -320 17 -11 2 -40 7 -65 11 -25 4 -54 9 -65 12 -89 19 -82 17
-135 33 -25 8 -47 14 -50 14 -3 1 -21 7 -40 15 -111 43 -263 113 -272 126 -4
5 -8 6 -8 1 0 -5 -8 -2 -17 6 -17 15 -116 71 -195 111 -21 11 -38 23 -38 28 0
5 -9 9 -19 9 -11 0 -22 4 -25 9 -8 13 -106 63 -106 54 0 -5 -4 -3 -8 2 -14 19
-129 69 -242 104 -41 13 -82 26 -90 29 -8 3 -22 6 -30 8 -8 2 -31 6 -50 10
-55 11 -122 23 -185 32 -42 6 -1060 13 -1066 8z m1021 -1189 c19 -3 62 -8 95
-12 33 -4 66 -8 73 -8 6 0 12 -4 12 -9 0 -5 5 -6 10 -3 13 8 202 -41 280 -72
8 -4 17 -7 20 -8 53 -17 315 -148 341 -171 8 -8 18 -14 22 -14 4 0 44 -22 89
-49 69 -40 241 -126 323 -162 28 -12 176 -60 200 -65 11 -2 29 -6 40 -9 55
-13 125 -26 170 -31 28 -4 73 -10 100 -14 54 -9 452 -5 525 4 54 7 286 57 310
66 3 1 9 2 14 1 4 -1 13 2 20 7 6 5 39 19 73 31 70 24 216 92 221 104 2 4 12
7 22 7 10 0 21 4 24 9 3 5 39 26 78 46 40 21 76 43 80 49 5 7 8 7 9 1 1 -5 3
-275 4 -599 l1 -588 -25 -11 c-14 -7 -28 -15 -31 -18 -3 -4 -21 -14 -40 -22
-19 -9 -66 -33 -105 -54 -61 -33 -208 -100 -270 -123 -54 -19 -123 -40 -154
-45 -19 -3 -39 -9 -45 -12 -5 -4 -19 -7 -30 -9 -12 -1 -37 -4 -56 -8 -153 -28
-376 -37 -585 -23 -55 3 -109 8 -120 10 -11 3 -42 8 -68 11 -27 4 -59 10 -70
12 -12 3 -31 7 -42 9 -11 3 -45 12 -75 20 -30 9 -59 17 -65 18 -10 3 -21 7
-137 51 -74 29 -195 90 -363 185 -143 81 -315 164 -401 195 -57 20 -174 57
-194 61 -3 0 -23 5 -45 10 -22 5 -51 10 -65 11 -14 1 -25 3 -25 4 0 1 -13 3
-30 5 -16 2 -50 6 -75 10 -25 3 -148 8 -275 10 -126 2 -232 5 -235 6 -3 1 -9
0 -15 -1 -27 -7 -235 -4 -235 3 0 5 -6 5 -12 0 -20 -12 -38 -12 -65 -2 -18 6
-22 6 -17 -3 4 -6 3 -9 -2 -5 -5 3 -29 8 -53 12 -135 20 -272 108 -364 232
-40 54 -97 179 -97 212 0 11 -4 22 -8 25 -11 7 -3 271 8 271 1 0 3 10 6 22 13
71 85 193 157 265 89 90 189 139 332 161 29 4 794 -1 835 -6z"/>
<path d="M5545 16180 c-2 -4 -4 -264 -4 -578 l0 -570 22 -15 c12 -7 72 -40
132 -72 61 -32 115 -61 120 -66 6 -4 53 -30 105 -57 52 -28 115 -62 140 -75
25 -14 81 -44 125 -67 44 -24 83 -48 87 -54 4 -6 8 -7 8 -2 0 5 6 4 13 -2 6
-5 48 -29 92 -52 184 -98 336 -183 332 -186 -1 -1 -42 -23 -92 -49 -49 -26
-126 -66 -170 -90 -44 -24 -118 -63 -165 -87 -47 -25 -102 -54 -122 -66 -21
-12 -38 -18 -38 -14 0 4 -4 2 -8 -4 -4 -6 -70 -44 -147 -84 -77 -40 -153 -81
-170 -90 -65 -36 -80 -44 -85 -45 -3 0 -18 -8 -35 -17 -16 -10 -55 -30 -85
-47 l-55 -29 -2 -586 -2 -586 67 0 c1342 -2 2446 -8 2477 -13 64 -10 128 -20
150 -22 36 -4 88 -16 97 -21 5 -3 23 -8 39 -11 39 -6 192 -59 238 -82 20 -11
39 -19 44 -20 14 -2 172 -83 282 -147 127 -73 313 -168 340 -174 6 -1 19 -7
30 -13 11 -6 22 -12 25 -13 3 0 12 -3 20 -7 17 -6 91 -30 103 -33 4 -1 8 -2
10 -4 1 -1 10 -3 20 -6 9 -2 25 -6 35 -8 9 -3 17 -5 17 -6 0 -1 9 -3 20 -5 11
-2 52 -10 90 -18 39 -8 102 -18 140 -22 39 -4 84 -9 100 -11 40 -5 350 -5 395
0 19 3 64 7 98 10 35 3 67 8 71 10 3 2 27 7 51 11 25 3 54 9 65 13 11 3 27 7
35 7 8 1 22 4 30 7 8 3 51 17 95 31 44 14 94 31 110 38 17 7 32 13 35 13 18 5
189 93 315 164 180 102 365 193 377 186 4 -3 8 0 8 5 0 6 9 11 20 11 11 0 20
5 20 12 0 6 3 9 6 5 3 -3 31 4 62 14 32 11 95 29 142 41 110 26 115 27 180 34
30 3 71 8 90 11 27 4 1341 11 2473 13 l67 0 0 599 0 599 -1252 -3 c-689 -1
-1269 -5 -1288 -8 -19 -4 -57 -9 -85 -13 -27 -3 -57 -7 -65 -8 -92 -17 -162
-34 -250 -62 -30 -10 -57 -18 -60 -19 -3 -1 -18 -7 -33 -13 -16 -7 -30 -12
-33 -12 -6 0 -258 -126 -289 -143 -50 -30 -291 -162 -295 -162 -3 -1 -39 -17
-81 -37 -126 -59 -329 -120 -439 -133 -14 -1 -43 -5 -65 -9 -180 -26 -458 -25
-650 4 -170 24 -310 61 -437 115 -21 8 -39 14 -40 13 -2 -2 -19 7 -39 20 -20
12 -39 19 -42 15 -4 -3 -7 -1 -7 5 0 7 -5 12 -11 12 -6 0 -41 17 -77 37 -37
21 -69 38 -72 38 -3 0 -16 8 -30 17 -68 44 -332 178 -420 213 -25 9 -54 21
-65 26 -32 13 -204 60 -235 64 -8 1 -33 5 -55 10 -22 5 -48 9 -57 10 -10 2
-26 3 -35 5 -40 4 145 41 232 45 22 1 40 3 40 4 0 7 208 5 212 -2 3 -4 11 -3
19 4 8 6 14 8 14 3 0 -5 17 -9 38 -10 62 -2 214 -18 272 -29 14 -3 43 -7 65
-11 22 -3 51 -7 65 -10 14 -3 42 -7 62 -10 l38 -5 -57 108 c-31 59 -71 132
-90 161 -18 29 -33 54 -33 57 0 7 -192 289 -205 300 -6 6 -27 30 -47 55 -82
104 -249 261 -368 346 -30 21 -56 42 -58 46 -2 5 -8 8 -12 8 -5 0 -44 22 -87
50 -43 27 -84 50 -90 50 -7 0 -13 4 -13 8 0 5 -12 13 -27 20 -25 10 -21 11 28
6 31 -2 67 -7 80 -9 66 -14 86 -17 104 -20 11 -1 20 -3 20 -5 0 -1 11 -3 25
-5 83 -9 334 -113 525 -218 33 -18 80 -44 105 -57 25 -14 47 -27 50 -30 16
-16 296 -147 330 -155 8 -2 29 -9 45 -16 63 -26 246 -71 268 -65 9 2 17 1 17
-3 0 -4 15 -8 33 -9 30 -3 72 -9 72 -12 0 -4 164 -10 290 -10 142 -1 201 2
305 16 25 3 59 7 75 9 51 7 109 21 200 48 39 11 72 21 75 22 56 12 267 110
394 184 49 28 95 51 102 51 8 0 14 3 14 8 0 4 39 27 88 52 48 25 88 48 90 53
2 4 8 7 14 7 8 0 93 35 173 70 26 12 153 50 185 56 14 3 68 14 121 24 53 11
121 23 150 26 30 3 605 7 1279 9 674 2 1237 4 1253 4 l27 1 0 598 0 598 -1247
-2 c-687 -1 -1268 -5 -1293 -8 -25 -4 -61 -8 -80 -10 -54 -6 -179 -33 -285
-60 -14 -4 -38 -13 -120 -44 -38 -15 -71 -26 -72 -25 -3 2 -187 -92 -263 -134
-30 -17 -99 -56 -152 -86 -54 -31 -98 -53 -98 -51 0 3 -12 -3 -27 -14 -24 -16
-196 -92 -243 -107 -29 -9 -97 -29 -105 -31 -5 -1 -38 -9 -72 -18 -34 -9 -66
-16 -70 -15 -4 1 -15 -1 -23 -4 -8 -3 -37 -8 -65 -11 -27 -2 -50 -5 -50 -6 0
-4 -175 -12 -270 -13 -107 -1 -274 8 -325 17 -14 2 -47 8 -75 12 -27 4 -54 8
-60 10 -5 1 -22 4 -36 7 -166 32 -381 119 -599 243 -115 65 -163 92 -241 133
-167 88 -366 158 -499 177 -25 3 -48 8 -51 10 -3 1 -25 5 -50 8 -24 3 -66 9
-94 12 -65 9 -2515 12 -2520 4z"/>
<path d="M7075 12162 c-1 -2 -20 -5 -41 -8 -51 -6 -93 -12 -124 -19 -14 -4
-38 -9 -55 -12 -45 -8 -60 -11 -60 -13 0 -1 -7 -3 -15 -5 -92 -24 -280 -102
-355 -148 -82 -50 -195 -126 -219 -147 -120 -102 -182 -163 -247 -242 -24 -29
-47 -54 -51 -56 -5 -2 -8 -9 -8 -15 -1 -7 -14 -28 -30 -47 -17 -19 -30 -40
-30 -47 0 -7 -4 -13 -8 -13 -5 0 -19 -19 -31 -42 -64 -119 -90 -169 -90 -173
-1 -3 -7 -18 -15 -33 -7 -15 -34 -88 -59 -162 -40 -120 -58 -188 -73 -282 -2
-16 -7 -43 -10 -60 -10 -57 -13 -361 -4 -418 5 -30 11 -73 15 -95 3 -22 8 -51
12 -65 3 -14 7 -35 9 -46 1 -12 12 -55 24 -95 13 -41 23 -78 25 -84 1 -5 7
-21 12 -35 6 -14 21 -50 33 -80 69 -171 201 -386 303 -492 9 -10 17 -20 17
-23 0 -3 32 -35 167 -162 19 -18 38 -33 43 -33 4 0 13 -6 19 -14 18 -22 197
-139 205 -134 2 2 12 -4 22 -13 25 -20 146 -77 189 -89 9 -2 40 -13 100 -36
23 -8 18 -7 105 -29 36 -9 79 -18 95 -20 17 -2 59 -8 95 -14 36 -5 279 -10
540 -11 616 -2 622 -2 880 -54 100 -20 341 -111 410 -156 14 -9 51 -29 83 -45
77 -40 92 -48 111 -64 9 -7 16 -10 16 -6 0 5 8 2 18 -6 19 -16 25 -19 142 -81
70 -36 188 -89 210 -94 3 0 18 -6 35 -13 30 -13 155 -49 190 -56 11 -2 27 -6
35 -8 8 -2 38 -7 65 -11 28 -4 61 -10 75 -12 126 -23 520 -23 646 0 10 2 42 7
69 11 28 5 52 9 55 10 10 2 65 15 85 20 79 17 187 56 197 70 4 6 8 6 8 1 0 -5
7 -3 15 4 8 7 15 9 15 6 0 -4 12 -1 28 8 15 8 61 31 102 52 41 20 129 67 195
104 163 91 269 145 278 142 4 -1 7 3 7 8 0 6 8 10 18 10 10 0 22 4 28 9 14 13
139 57 239 85 95 26 152 36 275 50 19 3 35 5 35 6 0 4 227 9 565 10 416 3 473
8 680 63 99 27 257 92 313 130 15 10 27 16 27 13 0 -7 138 81 158 100 7 8 16
14 20 14 4 0 19 10 33 23 15 12 48 40 74 62 76 64 166 158 225 235 19 25 37
47 40 50 9 8 76 113 90 140 7 14 16 27 19 30 10 8 94 184 94 198 0 6 4 12 7
12 4 0 10 14 14 31 3 17 12 45 21 62 20 44 71 237 80 307 3 19 8 58 12 85 15
102 8 406 -11 490 -2 6 -6 33 -10 60 -4 28 -10 57 -13 65 -3 8 -8 23 -10 33
-6 35 -46 152 -53 161 -5 5 -6 15 -3 22 3 8 0 14 -6 14 -6 0 -10 3 -9 8 7 33
-173 378 -203 390 -5 2 -9 9 -9 15 0 7 -15 29 -33 49 -17 21 -42 50 -54 66
-44 56 -155 163 -249 241 -36 30 -174 120 -192 125 -12 4 -22 12 -22 17 0 5
-9 9 -20 9 -11 0 -20 4 -20 9 0 5 -10 12 -22 16 -13 4 -25 8 -28 9 -3 1 -30
14 -60 30 -30 15 -56 27 -58 27 -5 -3 -58 12 -67 19 -5 4 -23 11 -40 15 -16 5
-34 9 -40 11 -5 2 -20 5 -33 8 -13 3 -31 7 -40 10 -36 11 -123 25 -192 31 -25
2 -45 5 -45 6 0 6 -804 4 -823 -3 -17 -6 -21 -5 -16 4 4 6 3 8 -3 5 -5 -3 -43
-9 -84 -12 -64 -6 -160 -21 -251 -40 -15 -3 -39 -10 -53 -15 -14 -5 -25 -8
-25 -5 0 13 -269 -93 -353 -139 -23 -13 -71 -39 -107 -58 -36 -20 -114 -63
-175 -97 -60 -34 -120 -64 -132 -67 -13 -4 -23 -9 -23 -13 0 -4 -17 -13 -37
-20 -21 -8 -56 -22 -78 -31 -22 -10 -58 -23 -80 -30 -22 -6 -49 -15 -60 -20
-26 -11 -59 -19 -155 -39 -119 -24 -240 -37 -329 -37 -39 1 -71 -2 -71 -5 0
-4 -16 -3 -35 1 -20 4 -38 4 -41 -1 -3 -5 -12 -5 -23 0 -10 6 -23 6 -31 1 -8
-5 -19 -6 -25 -2 -5 3 -37 7 -70 8 -64 1 -134 10 -200 23 -22 5 -47 9 -55 9
-8 1 -33 6 -55 12 -22 6 -51 14 -65 16 -14 3 -34 9 -45 14 -11 5 -38 14 -60
21 -22 6 -60 21 -85 32 -127 56 -200 92 -200 98 0 4 -12 10 -27 14 -16 3 -35
12 -43 19 -8 7 -40 26 -70 42 -30 15 -68 37 -83 47 -16 11 -30 17 -33 14 -9
-9 -6 -1559 3 -1568 24 -24 370 -203 433 -224 3 -1 16 -6 30 -12 46 -19 166
-58 215 -69 127 -28 269 -47 370 -48 l60 -1 0 185 c0 102 4 188 8 191 5 3 61
7 125 8 64 1 131 4 147 5 17 2 64 7 105 11 41 4 78 9 81 11 4 2 24 6 44 10 59
9 74 12 134 29 97 27 211 69 211 78 0 4 4 6 8 3 12 -7 335 158 375 192 9 8 17
12 17 7 0 -4 6 -3 13 3 24 19 205 115 222 118 6 1 31 11 55 22 71 31 206 74
275 87 11 2 21 4 23 5 4 4 105 20 162 26 14 1 25 3 25 4 0 13 828 19 916 7 26
-4 55 -10 65 -13 56 -18 146 -63 156 -78 4 -6 8 -8 8 -4 0 16 104 -90 136
-138 36 -53 78 -150 89 -200 14 -63 13 -211 -1 -279 -35 -168 -159 -330 -304
-398 -107 -50 -107 -50 -460 -53 -410 -3 -630 -12 -696 -28 -12 -3 -39 -8 -60
-11 -89 -14 -264 -67 -359 -109 -16 -8 -54 -24 -82 -36 -29 -12 -53 -26 -53
-31 0 -5 -3 -8 -7 -8 -13 3 -73 -25 -73 -33 0 -4 -5 -8 -11 -8 -6 0 -43 -19
-82 -42 -40 -23 -72 -40 -73 -37 0 2 -8 -2 -17 -9 -68 -57 -432 -212 -497
-212 -9 0 -20 -3 -24 -7 -4 -5 -16 -9 -27 -9 -10 -1 -21 -3 -24 -4 -8 -4 -16
-5 -75 -14 -30 -4 -64 -10 -75 -12 -84 -16 -395 -22 -515 -10 -126 12 -165 18
-215 27 -27 6 -59 12 -70 14 -28 5 -60 13 -62 15 -2 2 -6 3 -10 4 -37 7 -110
31 -117 37 -6 5 -20 9 -33 9 -13 0 -23 5 -23 12 0 6 -3 8 -7 5 -3 -4 -12 -2
-20 4 -7 6 -13 9 -13 6 0 -8 -252 121 -395 202 -33 19 -62 34 -65 34 -3 -1
-16 7 -30 16 -66 46 -308 146 -400 166 -11 3 -29 7 -41 10 -11 2 -29 7 -39 10
-18 6 -56 12 -115 20 -16 2 -30 5 -30 6 0 2 -47 6 -171 14 -49 4 -295 7 -545
8 -273 1 -460 6 -469 12 -8 5 -23 11 -33 12 -23 4 -125 53 -152 73 -101 75
-194 217 -225 342 -20 83 -18 281 4 317 4 6 9 20 11 32 2 12 19 51 37 87 60
120 200 236 328 273 68 19 64 19 382 22 163 1 300 5 304 9 10 11 11 207 2 236
-4 13 -5 21 0 19 10 -7 7 217 -3 233 -5 7 -4 11 1 7 11 -6 10 215 -1 233 -5 7
-4 11 1 8 5 -4 9 47 9 118 0 68 -4 124 -8 124 -5 0 -5 5 -1 11 10 17 10 160
-1 167 -10 7 -673 10 -680 4z"/>
<path d="M7108 8225 c-1 -1 -32 -6 -67 -9 -76 -8 -146 -22 -221 -44 -30 -9
-57 -16 -60 -17 -35 -8 -100 -32 -117 -43 -13 -8 -23 -11 -23 -8 0 13 -237
-117 -319 -175 -89 -64 -92 -66 -153 -123 -21 -19 -38 -32 -38 -30 0 3 -15
-12 -32 -33 -18 -21 -43 -47 -54 -58 -56 -53 -129 -153 -242 -330 -15 -24 -35
-67 -36 -78 -1 -4 -8 -12 -16 -17 -8 -5 -12 -10 -8 -10 4 0 -7 -29 -23 -65
-16 -36 -36 -87 -45 -113 -8 -26 -18 -54 -21 -62 -3 -8 -7 -19 -8 -25 -2 -5
-8 -30 -15 -55 -14 -53 -20 -78 -25 -105 -2 -11 -7 -31 -10 -45 -34 -139 -41
-533 -11 -601 4 -9 6 -20 5 -25 -5 -18 54 -264 69 -289 4 -5 7 -16 8 -23 5
-28 69 -180 108 -252 22 -41 44 -85 50 -97 6 -13 14 -23 19 -23 4 0 7 -6 7
-13 0 -8 9 -22 20 -32 11 -10 20 -23 20 -29 0 -6 16 -29 35 -51 20 -22 43 -52
52 -66 32 -53 275 -280 324 -303 10 -5 19 -13 19 -18 0 -4 5 -8 11 -8 6 0 17
-6 24 -13 27 -23 40 -32 80 -52 22 -11 42 -22 45 -25 10 -11 174 -85 182 -83
4 2 8 -2 8 -9 0 -6 3 -8 6 -5 4 3 14 2 24 -3 30 -16 223 -69 232 -64 4 3 8 2
8 -3 0 -4 12 -9 28 -9 15 -1 36 -4 48 -7 49 -12 218 -18 664 -21 261 -2 486
-6 500 -10 13 -3 42 -8 65 -11 22 -3 63 -10 90 -15 28 -6 59 -11 70 -13 11 -2
27 -6 35 -10 8 -3 49 -15 90 -28 41 -12 99 -33 128 -45 28 -13 52 -20 52 -16
0 4 4 3 8 -3 4 -5 30 -21 57 -33 28 -13 113 -59 190 -102 192 -107 316 -170
405 -207 82 -33 222 -78 285 -89 22 -5 42 -9 45 -9 3 -1 28 -5 55 -9 28 -4 61
-10 75 -12 139 -25 590 -19 685 9 11 3 36 8 55 11 53 8 72 13 157 36 90 25
276 99 281 112 2 4 9 8 16 8 11 0 138 66 261 135 150 85 338 175 395 190 8 3
42 14 75 25 32 11 68 22 80 25 48 10 68 14 83 19 9 3 37 8 61 11 23 3 57 8 75
11 17 3 47 8 66 11 28 4 983 10 2408 13 l122 0 0 583 c0 320 -4 587 -8 592 -5
7 -364 11 -1122 10 l-1115 0 -1 598 c0 419 3 597 10 598 55 6 204 3 214 -4 6
-5 12 -6 12 -1 0 5 38 9 85 9 47 0 85 -4 85 -9 0 -5 7 -3 15 4 12 10 15 10 15
-1 0 -9 3 -10 8 -4 9 14 145 14 154 0 5 -7 8 -7 8 0 0 12 275 14 286 2 4 -3
14 -3 23 1 9 5 39 7 66 5 60 -4 55 -4 130 0 33 2 66 -1 73 -6 6 -5 12 -6 12
-1 0 5 38 9 85 9 47 0 85 -4 85 -9 0 -5 7 -3 15 4 12 10 15 10 15 -1 0 -9 3
-10 8 -4 9 14 145 14 154 0 5 -7 8 -7 8 0 0 14 252 14 262 0 5 -7 8 -7 8 0 0
12 129 13 148 1 6 -4 12 -3 12 1 0 11 121 10 138 0 6 -5 12 -4 12 0 0 5 21 8
48 8 l47 0 3 592 2 591 -1242 -2 c-684 -2 -1259 -6 -1279 -9 -20 -3 -56 -8
-80 -11 -51 -6 -188 -34 -198 -41 -4 -2 -18 -6 -32 -8 -39 -8 -169 -53 -234
-83 -33 -15 -66 -28 -73 -30 -7 -1 -19 -7 -26 -13 -12 -10 -54 -33 -186 -102
-25 -13 -47 -27 -50 -30 -13 -15 -250 -139 -266 -139 -7 0 -14 -3 -16 -7 -3
-7 -28 -18 -143 -64 -16 -7 -34 -13 -40 -14 -5 -2 -35 -10 -66 -19 -57 -17
-88 -25 -124 -31 -11 -2 -33 -7 -50 -10 -98 -20 -217 -29 -400 -29 -227 0
-337 10 -485 46 -47 11 -92 21 -100 23 -8 1 -22 5 -30 8 -8 3 -49 18 -90 33
-41 15 -84 32 -95 38 -11 5 -23 10 -26 11 -12 0 -164 80 -167 88 -2 4 -8 7
-13 7 -6 0 -56 26 -112 59 -95 55 -131 75 -239 134 -50 27 -263 114 -299 121
-13 3 -52 12 -85 20 -58 14 -154 32 -234 43 -38 5 -1036 13 -1042 8z m977
-1189 c72 -5 131 -12 175 -21 14 -3 41 -8 60 -11 19 -4 60 -13 90 -21 30 -8
62 -16 70 -18 71 -15 345 -140 439 -199 20 -13 65 -39 101 -58 36 -19 82 -45
103 -57 20 -11 53 -30 72 -41 20 -11 64 -32 98 -46 34 -14 76 -32 92 -39 65
-28 193 -66 270 -81 22 -4 47 -9 55 -11 8 -1 29 -5 45 -7 17 -3 30 -5 30 -6 0
-1 23 -3 50 -6 28 -2 68 -6 90 -9 47 -6 53 -7 80 -5 11 0 50 0 86 -1 36 -1 71
1 77 5 6 3 13 2 17 -4 4 -6 11 -8 16 -4 5 3 44 7 87 9 73 4 160 13 209 21 49
9 69 13 93 19 14 3 35 8 47 11 12 2 34 9 48 14 14 5 25 7 25 4 0 -4 6 -2 13 3
6 6 25 13 42 17 43 11 219 87 226 98 3 5 9 8 11 6 6 -3 160 73 168 83 5 6 86
49 93 49 2 0 3 -265 3 -590 l-1 -590 -35 -20 c-19 -11 -43 -23 -52 -26 -10 -4
-18 -10 -18 -15 0 -5 -9 -9 -19 -9 -11 0 -21 -4 -23 -9 -5 -13 -231 -120 -321
-151 -81 -28 -209 -62 -277 -74 -19 -3 -46 -8 -59 -11 -130 -25 -555 -24 -690
2 -25 5 -46 8 -101 18 -73 12 -200 48 -232 66 -10 5 -23 9 -30 9 -33 0 -400
184 -538 271 -17 10 -182 92 -190 94 -3 1 -21 8 -40 17 -30 12 -165 60 -180
63 -3 1 -18 4 -35 8 -222 53 -288 58 -771 61 -402 3 -448 7 -542 47 -78 34
-222 150 -222 180 0 5 -4 9 -10 9 -5 0 -10 7 -10 15 0 8 -4 15 -9 15 -5 0 -15
16 -22 35 -7 19 -17 35 -21 35 -4 0 -8 8 -8 18 0 10 -4 22 -9 27 -17 19 -38
155 -36 237 2 80 21 171 50 233 7 17 14 34 13 39 0 5 4 12 9 15 5 3 19 22 30
41 22 36 112 129 148 154 42 28 115 65 115 58 0 -4 4 -2 8 5 4 6 21 14 37 17
17 2 30 5 30 6 0 1 18 3 39 6 22 2 40 5 42 6 4 5 725 0 799 -6z"/>
<path d="M5737 4243 c-3 -5 -48 -8 -101 -7 l-95 1 2 -579 2 -579 70 -37 c39
-20 72 -39 75 -42 3 -3 39 -23 80 -45 41 -21 77 -42 78 -47 2 -4 11 -8 21 -8
9 0 21 -4 27 -9 9 -9 81 -49 184 -103 30 -16 73 -40 95 -52 22 -12 69 -37 105
-56 36 -19 77 -42 93 -53 15 -10 27 -15 27 -11 0 4 8 0 18 -8 9 -8 46 -30 82
-48 36 -19 73 -40 83 -48 9 -9 17 -11 17 -7 0 4 8 1 18 -7 9 -8 36 -24 59 -34
23 -10 43 -21 43 -24 0 -3 -10 -10 -23 -16 -84 -40 -323 -169 -325 -176 -2 -4
-11 -8 -21 -8 -9 0 -21 -4 -26 -9 -6 -5 -53 -32 -105 -59 -52 -27 -120 -63
-151 -80 -89 -48 -158 -82 -165 -81 -4 0 -10 -3 -13 -8 -3 -4 -24 -17 -46 -28
-22 -11 -42 -22 -45 -25 -5 -5 -124 -68 -207 -109 l-53 -26 3 -585 2 -585 30
-2 c17 -2 44 -3 60 -2 17 0 37 0 45 0 54 -1 89 0 118 2 18 2 35 0 38 -5 3 -5
10 -5 17 -1 14 8 58 9 80 0 9 -3 18 -3 21 1 2 4 28 6 58 4 64 -4 75 -4 113 0
17 2 38 0 48 -5 9 -4 17 -4 17 0 0 10 93 8 109 -1 6 -4 11 -4 11 1 0 4 20 8
45 8 25 0 45 -4 45 -8 0 -4 8 -4 18 0 20 10 64 9 81 -1 6 -4 11 -4 11 1 0 10
93 9 109 -1 6 -4 11 -4 11 1 0 10 203 8 219 -1 6 -4 11 -3 11 1 0 5 15 8 33 6
35 -4 63 -4 152 -1 34 1 66 -1 72 -5 6 -4 14 -4 16 1 6 9 70 7 86 -2 5 -4 12
-3 14 1 3 5 29 7 59 5 64 -4 75 -4 113 0 17 2 38 0 48 -5 9 -4 17 -4 17 0 0
10 93 8 109 -1 6 -4 11 -4 11 1 0 4 20 8 45 8 25 0 45 -4 45 -8 0 -4 8 -4 18
0 20 10 64 9 81 -1 6 -4 11 -2 11 4 0 6 4 9 8 6 4 -2 71 -7 147 -10 77 -3 151
-8 165 -11 14 -3 45 -7 70 -10 73 -9 106 -16 190 -39 30 -9 66 -18 80 -22 26
-6 63 -20 92 -35 10 -5 22 -9 28 -9 6 0 42 -16 80 -34 39 -19 70 -32 70 -29 0
3 8 -1 18 -9 9 -8 31 -22 47 -30 34 -16 124 -66 194 -107 25 -15 69 -38 96
-52 28 -13 52 -27 55 -30 7 -8 44 -22 53 -21 4 1 7 -3 7 -8 0 -6 5 -10 11 -10
5 0 34 -11 62 -24 118 -53 352 -121 452 -131 17 -1 64 -6 105 -11 41 -5 163
-9 270 -9 178 1 227 4 345 21 22 3 48 6 57 5 10 0 20 5 23 10 4 5 10 7 14 5 4
-3 25 -1 47 5 87 23 181 52 211 65 17 8 34 14 37 14 3 0 31 12 63 27 32 14 60
27 63 28 14 4 66 30 70 35 3 3 30 18 60 33 30 15 87 46 125 68 119 69 407 212
425 210 3 -1 32 8 65 19 50 16 150 42 216 55 16 3 98 14 154 21 17 2 75 6 129
9 55 3 101 7 103 9 3 2 18 0 34 -4 16 -5 29 -6 29 -2 0 4 17 6 37 5 75 -3 99
-3 128 0 17 1 38 -1 48 -6 9 -4 17 -4 17 0 0 10 93 8 109 -1 6 -4 11 -4 11 1
0 4 20 8 45 8 25 0 45 -4 45 -8 0 -4 8 -4 18 0 20 10 64 9 81 -1 6 -4 11 -4
11 1 0 10 93 9 109 -1 6 -4 11 -4 11 1 0 10 203 8 219 -1 6 -4 11 -3 11 1 0 5
15 8 33 6 35 -4 63 -4 152 -1 34 1 66 -1 72 -5 6 -4 14 -4 16 1 6 9 70 7 86
-2 5 -4 12 -3 14 1 3 5 29 7 59 5 64 -4 75 -4 113 0 17 2 38 0 48 -5 9 -4 17
-4 17 0 0 10 93 8 109 -1 6 -4 11 -4 11 1 0 4 20 8 45 8 25 0 45 -4 45 -8 0
-4 8 -4 18 0 20 10 64 9 81 -1 6 -4 11 -4 11 1 0 10 93 9 109 -1 6 -4 11 -4
11 1 0 4 42 7 92 6 103 -2 135 -3 191 -1 l37 0 0 600 c0 524 -2 599 -15 595
-8 -4 -17 -2 -19 2 -3 5 -24 5 -46 1 -22 -4 -43 -3 -46 1 -3 5 -14 5 -24 -1
-10 -6 -21 -6 -24 -2 -3 5 -28 6 -56 2 -28 -4 -53 -3 -56 2 -3 4 -13 4 -23 -2
-10 -5 -21 -7 -25 -3 -9 9 -58 10 -83 1 -14 -5 -23 -3 -23 3 0 6 -6 7 -17 0
-10 -5 -26 -5 -40 0 -14 5 -23 5 -23 -1 0 -5 -12 -5 -30 0 -18 5 -32 5 -35 -1
-4 -5 -14 -5 -25 1 -13 7 -21 7 -25 0 -5 -8 -11 -8 -19 -1 -7 6 -16 8 -19 5
-8 -9 -85 -9 -93 -1 -4 3 -14 2 -23 -3 -10 -5 -23 -5 -30 -1 -7 5 -30 5 -51 1
-21 -4 -44 -4 -51 1 -7 4 -21 3 -30 -2 -10 -5 -20 -5 -23 -1 -3 5 -26 6 -50 2
-25 -4 -51 -3 -58 1 -6 4 -20 3 -29 -2 -10 -5 -20 -6 -23 -1 -5 9 -81 6 -96
-3 -6 -3 -10 -1 -10 5 0 7 -6 8 -17 1 -10 -5 -26 -5 -40 0 -14 5 -23 5 -23 -1
0 -5 -12 -5 -30 0 -18 5 -32 5 -35 -1 -4 -5 -13 -5 -24 1 -12 6 -22 5 -28 -1
-8 -8 -13 -7 -17 0 -5 8 -13 8 -26 1 -12 -6 -21 -7 -25 0 -4 6 -15 6 -30 0
-17 -6 -25 -6 -25 1 0 6 -6 7 -17 0 -10 -5 -26 -5 -40 0 -14 5 -23 5 -23 -1 0
-5 -12 -5 -30 0 -18 5 -32 5 -35 -1 -4 -5 -13 -5 -24 1 -12 6 -22 5 -28 -1 -8
-8 -13 -7 -17 0 -5 8 -13 8 -26 1 -12 -6 -21 -7 -25 0 -4 6 -15 6 -30 0 -17
-6 -25 -6 -25 1 0 6 -6 7 -17 0 -10 -5 -26 -5 -40 0 -13 5 -23 5 -23 1 0 -5
-15 -7 -32 -5 -63 7 -94 7 -109 1 -9 -3 -22 -3 -29 2 -7 4 -26 4 -41 0 -18 -5
-29 -5 -29 1 0 6 -6 7 -17 0 -10 -5 -26 -5 -39 -1 -12 5 -24 6 -27 3 -3 -2
-59 -6 -124 -8 -121 -3 -180 -9 -268 -25 -27 -5 -65 -12 -84 -15 -19 -3 -37
-8 -41 -10 -4 -2 -22 -7 -41 -10 -34 -6 -85 -20 -124 -35 -11 -5 -40 -16 -65
-25 -53 -19 -283 -127 -290 -136 -3 -3 -45 -28 -95 -54 -49 -27 -93 -53 -97
-59 -4 -6 -8 -7 -8 -2 0 5 -6 4 -12 -2 -44 -35 -330 -164 -389 -176 -13 -2
-35 -9 -49 -14 -40 -15 -217 -50 -295 -57 -144 -14 -181 -16 -222 -15 -63 1
-84 1 -123 -1 -19 0 -37 0 -40 1 -3 1 -32 3 -65 5 -60 2 -155 12 -193 20 -11
2 -37 6 -58 9 -53 8 -226 53 -261 68 -15 6 -30 12 -33 12 -18 4 -109 42 -127
54 -13 8 -23 12 -23 8 0 -3 -26 9 -57 26 -101 54 -185 99 -318 173 -230 126
-388 185 -617 230 -42 8 -87 15 -100 16 -20 1 -19 2 7 10 17 5 40 10 53 11 12
1 22 5 22 8 0 3 15 6 33 7 17 1 59 5 92 9 130 16 427 4 575 -22 14 -3 41 -7
60 -10 19 -2 60 -9 90 -14 30 -5 70 -12 88 -15 l33 -5 -54 102 c-30 57 -64
120 -76 141 -24 42 -182 289 -191 297 -3 3 -25 32 -50 65 -69 91 -78 102 -180
205 -96 97 -240 220 -258 220 -6 0 -12 4 -14 8 -3 9 -155 112 -164 112 -3 0
-25 13 -48 30 -24 16 -45 28 -47 26 -2 -2 -10 3 -18 11 -12 13 -11 15 5 10 10
-3 39 -8 64 -12 65 -9 92 -14 120 -20 14 -4 34 -8 45 -10 11 -2 38 -9 60 -15
68 -18 74 -20 95 -24 10 -3 34 -11 52 -19 34 -15 66 -27 71 -26 4 2 273 -135
320 -163 236 -139 453 -236 613 -273 11 -2 39 -9 64 -16 43 -10 56 -13 125
-24 60 -9 131 -17 196 -19 37 -2 72 -6 78 -10 6 -4 11 -3 11 3 0 7 8 7 25 1
15 -6 25 -6 25 0 0 5 12 5 30 0 19 -5 30 -5 30 1 0 6 7 6 19 0 10 -6 20 -8 23
-6 3 3 47 7 99 10 122 7 156 11 248 30 42 8 85 17 96 19 11 2 32 9 48 15 15 6
27 8 27 6 0 -3 15 1 33 8 17 8 37 15 42 17 6 1 20 6 33 11 13 5 26 9 28 9 11
0 226 101 234 109 3 3 30 19 60 34 105 54 155 81 160 88 12 15 271 140 350
168 19 7 44 17 55 22 25 10 151 43 215 55 14 2 36 7 50 9 86 18 174 27 277 29
46 0 83 5 83 11 0 5 5 4 11 -2 8 -8 20 -8 36 -2 13 5 22 6 20 1 -3 -4 8 -7 24
-7 16 0 29 3 29 7 0 4 10 4 23 0 22 -9 75 -7 84 2 3 3 16 1 29 -4 14 -6 26 -6
29 0 4 7 13 7 24 0 12 -6 22 -5 29 2 9 9 15 9 23 1 8 -8 20 -8 35 -3 15 6 24
6 24 0 0 -6 9 -6 25 0 14 5 25 6 25 2 0 -4 18 -7 40 -7 22 0 40 3 40 7 0 4 11
3 25 -2 16 -6 25 -6 25 0 0 6 9 6 23 2 22 -9 75 -7 84 2 3 3 16 1 29 -4 15 -6
26 -6 30 1 4 7 10 7 18 0 7 -6 15 -8 19 -5 9 9 68 11 73 2 3 -4 16 -3 29 2 16
6 25 6 25 0 0 -6 9 -6 25 0 16 6 25 6 25 0 0 -6 10 -6 26 0 14 6 23 7 21 2 -6
-8 50 -8 59 1 4 3 14 2 23 -3 10 -5 23 -5 31 0 8 5 21 5 30 0 9 -5 22 -5 30 0
8 5 21 5 31 -1 11 -6 20 -5 24 1 4 7 12 7 25 0 13 -7 21 -7 25 0 4 7 12 7 25
0 12 -6 21 -7 25 0 4 6 15 6 30 0 16 -6 25 -6 25 0 0 6 9 6 25 0 15 -6 26 -6
30 0 4 6 13 7 24 1 10 -6 23 -6 31 -1 8 5 21 5 31 -1 11 -6 20 -5 24 1 4 7 12
7 25 0 13 -7 21 -7 25 0 4 7 12 7 25 0 12 -6 21 -7 25 0 4 6 15 6 30 0 16 -6
25 -6 25 0 0 6 9 6 23 1 21 -8 66 -6 75 4 2 2 15 0 28 -5 14 -6 26 -6 29 0 4
7 13 7 24 0 12 -6 22 -5 29 2 9 9 15 9 23 1 8 -8 20 -8 35 -3 15 6 24 6 24 0
0 -6 9 -6 25 0 14 5 25 6 25 2 0 -4 18 -7 40 -7 22 0 40 3 40 7 0 4 11 3 25
-2 17 -6 25 -6 25 1 0 6 5 7 11 4 14 -10 103 -10 117 -1 9 5 12 162 12 600 l0
593 -62 -1 c-35 -1 -75 2 -90 6 -16 3 -28 3 -28 0 0 -4 -17 -6 -37 -4 -39 3
-89 2 -133 -1 -14 -2 -32 1 -41 5 -9 4 -19 5 -23 1 -8 -9 -230 -8 -244 1 -7 4
-12 4 -12 -1 0 -10 -292 -9 -308 1 -7 4 -12 4 -12 -1 0 -9 -220 -9 -244 0 -9
4 -16 3 -16 -1 0 -7 -75 -8 -105 -2 -5 1 -14 1 -20 0 -27 -5 -224 -2 -234 4
-6 4 -11 3 -11 -1 0 -5 -17 -7 -37 -5 -39 3 -89 2 -133 -1 -14 -2 -32 1 -41 5
-9 4 -19 4 -23 1 -8 -9 -221 -8 -235 1 -6 4 -11 3 -11 -1 0 -5 -19 -7 -42 -5
-55 4 -37 4 -226 -2 -90 -3 -175 -8 -190 -10 -15 -3 -47 -8 -72 -11 -106 -14
-282 -55 -350 -82 -8 -3 -19 -7 -25 -9 -58 -19 -85 -30 -85 -36 0 -5 -7 -8
-15 -8 -16 0 -318 -153 -335 -170 -3 -3 -23 -14 -45 -25 -22 -11 -42 -22 -45
-26 -13 -14 -274 -135 -276 -127 0 2 -7 -2 -15 -8 -13 -11 -101 -42 -137 -49
-9 -2 -17 -4 -17 -5 0 -2 -22 -8 -75 -19 -80 -18 -119 -25 -198 -37 -126 -19
-449 -18 -596 0 -82 11 -122 17 -138 22 -22 6 -57 14 -88 18 -14 3 -37 9 -52
15 -16 6 -28 8 -28 5 0 -2 -9 0 -21 6 -11 6 -28 13 -37 15 -76 15 -382 161
-512 245 -30 19 -286 150 -293 150 -3 0 -22 8 -43 17 -22 9 -48 18 -59 20 -10
2 -23 9 -27 16 -4 6 -8 9 -8 5 0 -4 -18 -1 -40 7 -39 14 -154 41 -215 51 -16
2 -41 7 -54 10 -26 6 -155 16 -231 18 -25 0 -48 6 -52 11 -5 7 -8 7 -8 0 0
-11 -62 -11 -79 0 -6 3 -11 3 -11 -2 0 -7 -87 -9 -115 -3 -5 1 -14 1 -20 0
-27 -5 -224 -2 -234 4 -6 4 -11 3 -11 -1 0 -5 -17 -7 -37 -5 -39 3 -89 2 -133
-1 -14 -2 -32 1 -41 5 -9 4 -19 5 -23 1 -8 -9 -230 -8 -244 1 -7 4 -12 4 -12
-1 0 -10 -292 -9 -308 1 -7 4 -12 4 -12 -1 0 -9 -220 -9 -244 0 -9 4 -16 3
-16 -1 0 -7 -75 -8 -105 -2 -5 1 -14 1 -20 0 -27 -5 -224 -2 -234 4 -6 4 -11
3 -11 -1 0 -5 -17 -7 -37 -5 -39 3 -89 2 -133 -1 -14 -2 -33 1 -42 5 -9 5 -19
5 -21 1z"/>
</g>
</svg>
